<svg xmlns="http://www.w3.org/2000/svg" viewBox="0 0 512 512">
  <defs>
    <linearGradient id="bg" x1="0" y1="0" x2="1" y2="1">
      <stop offset="0" stop-color="#2f7d4f"/><stop offset="1" stop-color="#1a4a2e"/>
    </linearGradient>
    <linearGradient id="back" x1="0" y1="0" x2="1" y2="1">
      <stop offset="0" stop-color="#3a6fd0"/><stop offset="1" stop-color="#22488f"/>
    </linearGradient>
    <pattern id="stripes" width="14" height="14" patternUnits="userSpaceOnUse" patternTransform="rotate(45)">
      <rect width="6" height="14" fill="rgba(255,255,255,0.16)"/>
    </pattern>
    <filter id="shadow" x="-20%" y="-20%" width="140%" height="140%">
      <feDropShadow dx="0" dy="10" stdDeviation="12" flood-color="#000" flood-opacity="0.45"/>
    </filter>
  </defs>
  <rect width="512" height="512" rx="112" fill="url(#bg)"/>
  <g transform="translate(256 262) scale(0.9) translate(-256 -262)">
    <g transform="rotate(-16 256 262)" filter="url(#shadow)">
      <rect x="150" y="106" width="212" height="304" rx="22" fill="#fff"/>
      <rect x="164" y="120" width="184" height="276" rx="14" fill="url(#back)"/>
      <rect x="164" y="120" width="184" height="276" rx="14" fill="url(#stripes)"/>
    </g>
    <g transform="rotate(10 256 262)" filter="url(#shadow)">
      <rect x="150" y="112" width="212" height="304" rx="22" fill="#fff"/>
      <text x="170" y="178" font-family="Helvetica Neue, Helvetica, Arial, sans-serif" font-weight="700" font-size="64" fill="#c8242c">A</text>
      <path transform="translate(256 268) scale(1.9)" fill="#c8242c"
        d="M0 34 C-30 14 -46 -1 -46 -18 C-46 -32 -35 -42 -23 -42 C-13 -42 -5 -36 0 -28 C5 -36 13 -42 23 -42 C35 -42 46 -32 46 -18 C46 -1 30 14 0 34 Z"/>
    </g>
  </g>
</svg>
